<svg xmlns="http://www.w3.org/2000/svg" viewBox="0 0 24 24" width="24" height="24" fill="none">
<defs><clipPath id="sh"><path d="M30 -2V30H-2Z"/></clipPath></defs>
<g stroke-width="1.8" stroke-linecap="round" stroke-linejoin="round">
<g stroke="#8E96A3"><path d="M12 3c1 4-4 5.5-4 10a4 4 0 0 0 8 0c0-2-1-3.5-1-3.5S17 11 17 13a5 5 0 0 1-10 0C7 8 12 7 12 3z"/></g>
<g stroke="#5B6270" clip-path="url(#sh)"><path d="M12 3c1 4-4 5.5-4 10a4 4 0 0 0 8 0c0-2-1-3.5-1-3.5S17 11 17 13a5 5 0 0 1-10 0C7 8 12 7 12 3z"/></g>
</g>
</svg>
